<svg width="910" height="420" viewBox="0 0 910 420" fill="none" xmlns="http://www.w3.org/2000/svg">
<path d="M113.75 317.25H146.25V249.406L172.25 275.406L195 252.25L130 187.25L65 252.25L88.1563 275L113.75 249.406V317.25ZM32.5 366C23.5625 366 15.9088 362.815 9.53877 356.445C3.16878 350.075 -0.0108057 342.427 2.75891e-05 333.5V73.5C2.75891e-05 64.5625 3.18502 56.9088 9.55502 50.5388C15.925 44.1688 23.5734 40.9892 32.5 41H162.5L260 138.5V333.5C260 342.437 256.815 350.091 250.445 356.461C244.075 362.831 236.427 366.011 227.5 366H32.5ZM146.25 154.75V73.5H32.5V333.5H227.5V154.75H146.25Z" fill="#00B4DB"/>
<path d="M388.8 78.5C407 78.5 422.75 81.0667 436.05 86.2C449.583 91.3333 461.833 99.15 472.8 109.65L446.2 140.8C429.633 127.267 411.9 120.5 393 120.5C382.967 120.5 375.033 122.6 369.2 126.8C363.367 130.767 360.45 136.6 360.45 144.3C360.45 149.667 361.733 154.1 364.3 157.6C366.867 160.867 371.417 164.017 377.95 167.05C384.483 170.083 394.283 173.7 407.35 177.9C432.083 185.833 450.283 195.633 461.95 207.3C473.617 218.733 479.45 235.067 479.45 256.3C479.45 271.467 475.6 284.883 467.9 296.55C460.2 307.983 449.117 316.967 434.65 323.5C420.183 329.8 403.033 332.95 383.2 332.95C363.367 332.95 345.75 329.8 330.35 323.5C315.183 317.2 302.117 308.8 291.15 298.3L320.2 266.45C329.533 274.383 339.1 280.333 348.9 284.3C358.933 288.267 369.783 290.25 381.45 290.25C393.35 290.25 402.683 287.683 409.45 282.55C416.45 277.183 419.95 269.833 419.95 260.5C419.95 254.433 418.667 249.417 416.1 245.45C413.533 241.25 409.1 237.517 402.8 234.25C396.5 230.983 387.4 227.483 375.5 223.75C348.667 215.583 329.533 205.55 318.1 193.65C306.9 181.75 301.3 166.7 301.3 148.5C301.3 134.5 305.033 122.25 312.5 111.75C319.967 101.017 330.35 92.85 343.65 87.25C356.95 81.4167 372 78.5 388.8 78.5ZM661.543 311.25C676.71 311.25 689.893 313.117 701.093 316.85C712.293 320.35 723.026 325.833 733.293 333.3L698.643 378.45C685.343 363.517 671.693 351.967 657.693 343.8C643.693 335.867 626.31 331.9 605.543 331.9C583.843 331.9 565.06 327 549.193 317.2C533.326 307.167 521.076 292.7 512.443 273.8C504.043 254.9 499.843 232.15 499.843 205.55C499.843 179.417 504.16 156.783 512.793 137.65C521.66 118.517 534.26 103.933 550.593 93.9C566.926 83.6333 586.41 78.5 609.043 78.5C643.576 78.5 670.41 89.5833 689.543 111.75C708.91 133.917 718.593 165.183 718.593 205.55C718.593 255.017 699.576 290.25 661.543 311.25ZM560.043 205.55C560.043 235.417 564.126 257.117 572.293 270.65C580.46 284.183 592.71 290.95 609.043 290.95C625.843 290.95 638.21 284.3 646.143 271C654.31 257.467 658.393 235.65 658.393 205.55C658.393 175.45 654.31 153.75 646.143 140.45C637.976 127.15 625.61 120.5 609.043 120.5C592.476 120.5 580.11 127.267 571.943 140.8C564.01 154.1 560.043 175.683 560.043 205.55ZM810.093 84.45V281.5H904.593L898.643 327H752.693V84.45H810.093Z" fill="#00B4DB"/>
</svg>
