<svg width="71" height="69" viewBox="0 0 71 69" fill="none" xmlns="http://www.w3.org/2000/svg">
<path d="M35.4998 0.916687C30.9583 0.916687 26.4612 1.81121 22.2654 3.54919C18.0695 5.28716 14.2571 7.83455 11.0457 11.0459C4.56009 17.5315 0.916504 26.3279 0.916504 35.5C0.916504 50.7859 10.8419 63.7546 24.5715 68.3542C26.3007 68.6309 26.854 67.5588 26.854 66.625V60.7804C17.2744 62.8554 15.234 56.1463 15.234 56.1463C13.6432 52.1346 11.3953 51.0625 11.3953 51.0625C8.24817 48.9184 11.6373 48.9875 11.6373 48.9875C15.0957 49.2296 16.9286 52.5496 16.9286 52.5496C19.9373 57.8063 25.0211 56.25 26.9923 55.42C27.3036 53.1721 28.2028 51.6504 29.1711 50.7859C21.4936 49.9213 13.4357 46.9471 13.4357 33.7709C13.4357 29.9321 14.7498 26.8542 16.9978 24.3988C16.6519 23.5342 15.4415 19.9375 17.3436 15.2688C17.3436 15.2688 20.2486 14.335 26.854 18.7963C29.5861 18.0354 32.5603 17.655 35.4998 17.655C38.4394 17.655 41.4136 18.0354 44.1457 18.7963C50.7511 14.335 53.6561 15.2688 53.6561 15.2688C55.5582 19.9375 54.3478 23.5342 54.0019 24.3988C56.2498 26.8542 57.564 29.9321 57.564 33.7709C57.564 46.9817 49.4715 49.8867 41.7594 50.7513C43.0044 51.8234 44.1457 53.9329 44.1457 57.1492V66.625C44.1457 67.5588 44.699 68.6654 46.4628 68.3542C60.1923 63.72 70.0832 50.7859 70.0832 35.5C70.0832 30.9585 69.1886 26.4614 67.4507 22.2655C65.7127 18.0697 63.1653 14.2573 59.9539 11.0459C56.7426 7.83455 52.9301 5.28716 48.7343 3.54919C44.5385 1.81121 40.0414 0.916687 35.4998 0.916687Z" fill="#F37335"/>
</svg>
