<svg width="72" height="72" viewBox="0 0 72 72" fill="none" xmlns="http://www.w3.org/2000/svg">
<mask id="mask0_28_172" style="mask-type:luminance" maskUnits="userSpaceOnUse" x="0" y="0" width="72" height="72">
<path d="M72 0H0V72H72V0Z" fill="white"/>
</mask>
<g mask="url(#mask0_28_172)">
<path d="M47.4749 42.4749C48.8417 41.108 48.8417 38.892 47.4749 37.5251C46.108 36.1583 43.892 36.1583 42.5251 37.5251L36.5251 43.5251C35.1583 44.892 35.1583 47.108 36.5251 48.4749L42.5251 54.4749C43.892 55.8417 46.108 55.8417 47.4749 54.4749C48.8417 53.108 48.8417 50.892 47.4749 49.5251L47.4497 49.5H56.6667C57.9553 49.5 59 50.5447 59 51.8333C59 56.3437 55.3437 60 50.8333 60H24.5C17.5964 60 12 54.4036 12 47.5V46C12 44.067 10.433 42.5 8.5 42.5C6.56701 42.5 5 44.067 5 46V47.5C5 58.2695 13.7304 67 24.5 67H50.8333C59.2096 67 66 60.2096 66 51.8333C66 46.6787 61.8213 42.5 56.6667 42.5H47.4497L47.4749 42.4749Z" fill="#004EDB"/>
<path d="M46.5 13C53.4036 13 59 18.5964 59 25.5V27C59 28.933 60.567 30.5 62.5 30.5C64.433 30.5 66 28.933 66 27V25.5C66 14.7304 57.2696 6 46.5 6H20.1667C11.7903 6 5 12.7903 5 21.1667C5 26.3213 9.17868 30.5 14.3333 30.5H24.5503L24.5252 30.5251C23.1584 31.892 23.1584 34.108 24.5252 35.4749C25.892 36.8417 28.1081 36.8417 29.4749 35.4749L35.4749 29.4749C36.1643 28.7855 36.5349 27.8399 36.4975 26.8657C36.4601 25.8915 36.018 24.9771 35.2778 24.3426L28.2778 18.3426C26.8102 17.0846 24.6006 17.2546 23.3427 18.7222C22.1356 20.1304 22.2432 22.2217 23.5504 23.5H14.3333C13.0447 23.5 12 22.4553 12 21.1667C12 16.6563 15.6563 13 20.1667 13H46.5Z" fill="#004EDB"/>
<path d="M45 34C48.866 34 52 30.866 52 27C52 23.134 48.866 20 45 20C41.134 20 38 23.134 38 27C38 30.866 41.134 34 45 34Z" fill="#0066FF"/>
<path d="M26 53C29.866 53 33 49.866 33 46C33 42.134 29.866 39 26 39C22.134 39 19 42.134 19 46C19 49.866 22.134 53 26 53Z" fill="#66AFFF"/>
<path d="M48 20H42C39.7909 20 38 21.7909 38 24V30C38 32.2091 39.7909 34 42 34H48C50.2091 34 52 32.2091 52 30V24C52 21.7909 50.2091 20 48 20Z" fill="#0066FF"/>
</g>
</svg>
