<svg width="1995" height="520" viewBox="0 0 1995 520" fill="none" xmlns="http://www.w3.org/2000/svg">
<path d="M213.198 40.743C190.986 15.7867 158.665 0 122.5 0C55.3902 0 1 54.1664 1 121H31.375C31.375 70.8512 72.1439 30.25 122.5 30.25C150.265 30.25 174.897 42.7754 191.556 62.2961L162.984 90.75H244V10.0676L213.198 40.743Z" fill="#FDC830"/>
<path d="M122.5 489.5C94.7354 489.5 70.1031 476.871 53.4443 457.189L82.0158 428.5H1V509.849L31.8021 478.92C54.0139 504.083 86.3822 520 122.5 520C189.61 520 244 465.386 244 398H213.625C213.625 448.563 172.856 489.5 122.5 489.5Z" fill="#F37335"/>
<path d="M122 127C54.595 127 0 154.248 0 187.889V340.111C0 373.752 54.7475 401 122 401C189.252 401 244 373.752 244 340.111V187.889C244 154.248 189.405 127 122 127ZM213.5 340.111C213.5 347.722 181.017 370.556 122 370.556C62.9825 370.556 30.5 347.722 30.5 340.111V306.166C55.0525 318.039 87.23 324.889 122 324.889C156.77 324.889 188.947 318.039 213.5 306.166V340.111ZM213.5 270.85C193.675 285.311 158.905 294.444 122 294.444C85.095 294.444 50.325 285.311 30.5 270.85V228.076C52.9175 240.71 85.5525 248.778 122 248.778C158.448 248.778 191.082 240.71 213.5 228.076V270.85ZM122 218.333C62.9825 218.333 30.5 195.5 30.5 187.889C30.5 180.278 62.9825 157.444 122 157.444C181.017 157.444 213.5 180.278 213.5 187.889C213.5 195.5 181.017 218.333 122 218.333Z" fill="url(#paint0_linear_15_39)"/>
<path d="M433.65 387.35C446.483 387.35 458.15 389.333 468.65 393.3C479.15 397.033 489.3 402.283 499.1 409.05L477.4 437.05C463.4 424.683 450.1 416.167 437.5 411.5C424.9 406.833 407.867 404.5 386.4 404.5C366.333 404.5 348.717 399.833 333.55 390.5C318.383 380.933 306.483 366.933 297.85 348.5C289.45 329.833 285.25 307.317 285.25 280.95C285.25 255.05 289.45 232.65 297.85 213.75C306.483 194.85 318.5 180.5 333.9 170.7C349.3 160.667 367.033 155.65 387.1 155.65C407.4 155.65 425.133 160.55 440.3 170.35C455.7 179.917 467.6 194.033 476 212.7C484.633 231.367 488.95 254 488.95 280.6C488.95 308.833 484.283 331.35 474.95 348.15C465.617 364.717 451.85 377.783 433.65 387.35ZM320.6 280.95C320.6 314.317 326.433 338.817 338.1 354.45C350 370.083 366.333 377.9 387.1 377.9C431.433 377.9 453.6 345.467 453.6 280.6C453.6 215.5 431.433 182.95 387.1 182.95C366.1 182.95 349.767 190.883 338.1 206.75C326.433 222.617 320.6 247.35 320.6 280.95ZM576.242 159.85V371.95H675.292L671.442 401H542.992V159.85H576.242ZM894.286 155.65C908.752 155.65 920.886 157.517 930.686 161.25C940.719 164.983 950.869 171.05 961.136 179.45L942.936 200.8C928.236 188.9 912.719 182.95 896.386 182.95C876.319 182.95 860.102 190.65 847.736 206.05C835.602 221.45 829.536 246.183 829.536 280.25C829.536 313.383 835.602 337.883 847.736 353.75C859.869 369.383 875.969 377.2 896.036 377.2C906.302 377.2 915.286 375.45 922.986 371.95C930.686 368.45 938.852 363.55 947.486 357.25L963.936 378.25C956.469 385.95 946.902 392.367 935.236 397.5C923.569 402.633 910.152 405.2 894.986 405.2C875.386 405.2 857.886 400.417 842.486 390.85C827.319 381.05 815.419 366.817 806.786 348.15C798.386 329.25 794.186 306.617 794.186 280.25C794.186 253.883 798.619 231.367 807.486 212.7C816.352 193.8 828.369 179.567 843.536 170C858.702 160.433 875.619 155.65 894.286 155.65ZM1066.5 212.35C1092.4 212.35 1112.47 220.983 1126.7 238.25C1141.17 255.517 1148.4 278.967 1148.4 308.6C1148.4 327.733 1145.13 344.65 1138.6 359.35C1132.07 373.817 1122.62 385.133 1110.25 393.3C1097.88 401.233 1083.18 405.2 1066.15 405.2C1040.25 405.2 1020.07 396.567 1005.6 379.3C991.133 362.033 983.899 338.583 983.899 308.95C983.899 289.817 987.166 273.017 993.699 258.55C1000.23 243.85 1009.68 232.533 1022.05 224.6C1034.42 216.433 1049.23 212.35 1066.5 212.35ZM1066.5 238.25C1034.53 238.25 1018.55 261.817 1018.55 308.95C1018.55 355.85 1034.42 379.3 1066.15 379.3C1097.88 379.3 1113.75 355.733 1113.75 308.6C1113.75 261.7 1098 238.25 1066.5 238.25ZM1288.39 212.35C1305.19 212.35 1318.26 217.367 1327.59 227.4C1337.16 237.433 1341.94 251.2 1341.94 268.7V401H1309.74V273.25C1309.74 260.183 1307.29 250.967 1302.39 245.6C1297.49 240.233 1290.26 237.55 1280.69 237.55C1270.89 237.55 1262.26 240.35 1254.79 245.95C1247.33 251.55 1240.33 259.6 1233.79 270.1V401H1201.59V216.55H1229.24L1232.04 243.85C1238.58 234.05 1246.63 226.35 1256.19 220.75C1265.99 215.15 1276.73 212.35 1288.39 212.35ZM1539.73 216.55L1477.08 401H1438.23L1374.53 216.55H1409.53L1457.83 372.3L1505.78 216.55H1539.73ZM1714.48 303.35C1714.48 308.717 1714.24 314.2 1713.78 319.8H1596.18C1597.58 340.1 1602.71 355.033 1611.58 364.6C1620.44 374.167 1631.88 378.95 1645.88 378.95C1654.74 378.95 1662.91 377.667 1670.38 375.1C1677.84 372.533 1685.66 368.45 1693.83 362.85L1707.83 382.1C1688.23 397.5 1666.76 405.2 1643.43 405.2C1617.76 405.2 1597.69 396.8 1583.23 380C1568.99 363.2 1561.88 340.1 1561.88 310.7C1561.88 291.567 1564.91 274.65 1570.98 259.95C1577.28 245.017 1586.14 233.35 1597.58 224.95C1609.24 216.55 1622.89 212.35 1638.53 212.35C1663.03 212.35 1681.81 220.4 1694.88 236.5C1707.94 252.6 1714.48 274.883 1714.48 303.35ZM1682.63 293.9C1682.63 275.7 1679.01 261.817 1671.78 252.25C1664.54 242.683 1653.69 237.9 1639.23 237.9C1612.86 237.9 1598.51 257.267 1596.18 296H1682.63V293.9ZM1846.05 212.35C1852.58 212.35 1858.65 213.05 1864.25 214.45L1858.3 245.95C1852.7 244.55 1847.33 243.85 1842.2 243.85C1830.77 243.85 1821.55 248.05 1814.55 256.45C1807.55 264.85 1802.07 277.917 1798.1 295.65V401H1765.9V216.55H1793.55L1796.7 254C1801.6 240.233 1808.25 229.85 1816.65 222.85C1825.05 215.85 1834.85 212.35 1846.05 212.35ZM1994.01 392.6C1981.88 401 1968.11 405.2 1952.71 405.2C1937.08 405.2 1924.83 400.767 1915.96 391.9C1907.33 382.8 1903.01 369.733 1903.01 352.7V241.4H1870.81V216.55H1903.01V174.9L1935.21 171.05V216.55H1978.96L1975.46 241.4H1935.21V351.3C1935.21 360.867 1936.84 367.867 1940.11 372.3C1943.61 376.5 1949.33 378.6 1957.26 378.6C1964.49 378.6 1972.66 376.15 1981.76 371.25L1994.01 392.6Z" fill="url(#paint1_linear_15_39)"/>
<defs>
<linearGradient id="paint0_linear_15_39" x1="122" y1="127" x2="122" y2="401" gradientUnits="userSpaceOnUse">
<stop stop-color="#FDC830"/>
<stop offset="1" stop-color="#F37335"/>
</linearGradient>
<linearGradient id="paint1_linear_15_39" x1="303.5" y1="382" x2="564.5" y2="198.5" gradientUnits="userSpaceOnUse">
<stop stop-color="#F37335"/>
<stop offset="1" stop-color="#FDC830"/>
</linearGradient>
</defs>
</svg>
