<svg width="244" height="520" viewBox="0 0 244 520" fill="none" xmlns="http://www.w3.org/2000/svg">
<path d="M213.198 40.743C190.986 15.7867 158.665 0 122.5 0C55.3902 0 1 54.1664 1 121H31.375C31.375 70.8512 72.1439 30.25 122.5 30.25C150.265 30.25 174.897 42.7754 191.556 62.2961L162.984 90.75H244V10.0676L213.198 40.743Z" fill="#FDC830"/>
<path d="M122.5 489.5C94.7354 489.5 70.1031 476.871 53.4443 457.189L82.0158 428.5H1V509.849L31.8021 478.92C54.0139 504.083 86.3822 520 122.5 520C189.61 520 244 465.386 244 398H213.625C213.625 448.563 172.856 489.5 122.5 489.5Z" fill="#F37335"/>
<path d="M122 127C54.595 127 0 154.248 0 187.889V340.111C0 373.752 54.7475 401 122 401C189.252 401 244 373.752 244 340.111V187.889C244 154.248 189.405 127 122 127ZM213.5 340.111C213.5 347.722 181.017 370.556 122 370.556C62.9825 370.556 30.5 347.722 30.5 340.111V306.166C55.0525 318.039 87.23 324.889 122 324.889C156.77 324.889 188.947 318.039 213.5 306.166V340.111ZM213.5 270.85C193.675 285.311 158.905 294.444 122 294.444C85.095 294.444 50.325 285.311 30.5 270.85V228.076C52.9175 240.71 85.5525 248.778 122 248.778C158.448 248.778 191.082 240.71 213.5 228.076V270.85ZM122 218.333C62.9825 218.333 30.5 195.5 30.5 187.889C30.5 180.278 62.9825 157.444 122 157.444C181.017 157.444 213.5 180.278 213.5 187.889C213.5 195.5 181.017 218.333 122 218.333Z" fill="url(#paint0_linear_16_133)"/>
<defs>
<linearGradient id="paint0_linear_16_133" x1="122" y1="127" x2="122" y2="401" gradientUnits="userSpaceOnUse">
<stop stop-color="#FDC830"/>
<stop offset="1" stop-color="#F37335"/>
</linearGradient>
</defs>
</svg>
